<?xml version="1.0" encoding="UTF-8" standalone="no"?>
<!-- Created with Inkscape (http://www.inkscape.org/) -->
<svg xmlns:inkscape="http://www.inkscape.org/namespaces/inkscape" xmlns:rdf="http://www.w3.org/1999/02/22-rdf-syntax-ns#" xmlns="http://www.w3.org/2000/svg" xmlns:xlink="http://www.w3.org/1999/xlink" xmlns:ns1="http://sozi.baierouge.fr" xmlns:cc="http://creativecommons.org/ns#" xmlns:sodipodi="http://sodipodi.sourceforge.net/DTD/sodipodi-0.dtd" xmlns:dc="http://purl.org/dc/elements/1.1/" id="svg2" xml:space="preserve" viewBox="0 0 164.26 167.98" version="1.1" inkscape:version="0.91 r13725">
  <defs id="defs6">
    <linearGradient id="linearGradient48" y2="1337.6" gradientUnits="userSpaceOnUse" x2="1610.8" gradientTransform="matrix(-.66713 .44147 .44147 .66713 602.27 -1482.4)" y1="1337.6" x1="1594.6">
      <stop id="stop50" style="stop-color:#f8e87a" offset="0"/>
      <stop id="stop52" style="stop-color:#f7e57a" offset=".2471"/>
      <stop id="stop54" style="stop-color:#f5dc79" offset=".4314"/>
      <stop id="stop56" style="stop-color:#f1cd79" offset=".59220"/>
      <stop id="stop58" style="stop-color:#ebb878" offset=".74510"/>
      <stop id="stop60" style="stop-color:#e59e78" offset=".88240"/>
      <stop id="stop62" style="stop-color:#e08378" offset="1"/>
    </linearGradient>
    <clipPath id="clipPath72">
      <path id="path74" d="m129.05 113.28c-0.004 0.059-0.028 0.172-0.074 0.336l0.105-0.262c0.129 0.235 0.246 0.504 0.344 0.809 0.328 4.121-2.129 6.961-7.375 8.52 0.101-0.504 0.301-1.024 0.597-1.555 0.192-0.371 0.418-0.758 0.68-1.16 0.496-0.672 1.113-1.371 1.852-2.09 1.578-1.539 2.804-3.219 3.683-5.039 0.121 0.152 0.184 0.297 0.188 0.441z" inkscape:connector-curvature="0"/>
    </clipPath>
    <clipPath id="clipPath80">
      <path id="path82" d="m-17.327-0.84532h14.579v16.565h-14.579v-16.565z" inkscape:connector-curvature="0"/>
    </clipPath>
    <radialGradient id="radialGradient84" gradientUnits="userSpaceOnUse" cy="2.1001" cx="-12.6" r="10.588">
      <stop id="stop86" style="stop-color:#ffffff" offset="0"/>
      <stop id="stop88" style="stop-color:#ffffff;stop-opacity:0" offset="1"/>
    </radialGradient>
    <mask id="mask90">
      <g id="g92">
        <g id="g94" clip-path="url(#clipPath80)">
          <path id="path96" style="fill:url(#radialGradient84)" d="m-17.327-0.84532h14.579v16.565h-14.579v-16.565z" inkscape:connector-curvature="0"/>
        </g>
      </g>
    </mask>
    <radialGradient id="radialGradient100" gradientUnits="userSpaceOnUse" cy="2.1001" cx="-12.6" r="10.588">
      <stop id="stop102" style="stop-color:#ffffff" offset="0"/>
      <stop id="stop104" style="stop-color:#f4d98f" offset="1"/>
    </radialGradient>
    <linearGradient id="linearGradient118" y2="1340.3" gradientUnits="userSpaceOnUse" x2="1610.9" gradientTransform="matrix(-.66713 .44147 .44147 .66713 602.25 -1482.6)" y1="1340.3" x1="1594.7">
      <stop id="stop120" style="stop-color:#f8e87a" offset="0"/>
      <stop id="stop122" style="stop-color:#f7e57a" offset=".2471"/>
      <stop id="stop124" style="stop-color:#f5dc79" offset=".4314"/>
      <stop id="stop126" style="stop-color:#f1cd79" offset=".59220"/>
      <stop id="stop128" style="stop-color:#ebb878" offset=".74510"/>
      <stop id="stop130" style="stop-color:#e59e78" offset=".88240"/>
      <stop id="stop132" style="stop-color:#e08378" offset="1"/>
    </linearGradient>
    <clipPath id="clipPath142">
      <path id="path144" d="m122.05 122.68c5.246-1.559 7.703-4.399 7.375-8.52 0.293 0.832 0.445 1.871 0.453 3.113 0.035 1.723-0.266 2.992-0.902 3.813-0.286 0.355-0.774 0.734-1.469 1.148-0.36 0.238-0.891 0.563-1.586 0.977-0.336 0.226-0.656 0.422-0.965 0.582-1.219 0.75-2.078 1.187-2.574 1.312-0.399-0.73-0.508-1.539-0.332-2.425z" inkscape:connector-curvature="0"/>
    </clipPath>
    <clipPath id="clipPath150">
      <path id="path152" d="m-16.789-2.9472h16.218v18.204h-16.218v-18.204z" inkscape:connector-curvature="0"/>
    </clipPath>
    <radialGradient id="radialGradient154" gradientUnits="userSpaceOnUse" cy="2.2998" cx="-12.55" r="10.588">
      <stop id="stop156" style="stop-color:#ffffff" offset="0"/>
      <stop id="stop158" style="stop-color:#ffffff;stop-opacity:0" offset="1"/>
    </radialGradient>
    <mask id="mask160">
      <g id="g162">
        <g id="g164" clip-path="url(#clipPath150)">
          <path id="path166" style="fill:url(#radialGradient154)" d="m-16.789-2.9472h16.218v18.204h-16.218v-18.204z" inkscape:connector-curvature="0"/>
        </g>
      </g>
    </mask>
    <radialGradient id="radialGradient170" gradientUnits="userSpaceOnUse" cy="2.2998" cx="-12.55" r="10.588">
      <stop id="stop172" style="stop-color:#ffffff" offset="0"/>
      <stop id="stop174" style="stop-color:#f4d98f" offset="1"/>
    </radialGradient>
    <linearGradient id="linearGradient254" y2="1337.6" gradientUnits="userSpaceOnUse" x2="1610.8" gradientTransform="matrix(.72846 .33071 -.33071 .72846 -717.4 -1425.2)" y1="1337.6" x1="1594.6">
      <stop id="stop256" style="stop-color:#f8e87a" offset="0"/>
      <stop id="stop258" style="stop-color:#f7e57a" offset=".2471"/>
      <stop id="stop260" style="stop-color:#f5dc79" offset=".4314"/>
      <stop id="stop262" style="stop-color:#f1cd79" offset=".59220"/>
      <stop id="stop264" style="stop-color:#ebb878" offset=".74510"/>
      <stop id="stop266" style="stop-color:#e59e78" offset=".88240"/>
      <stop id="stop268" style="stop-color:#e08378" offset="1"/>
    </linearGradient>
    <clipPath id="clipPath278">
      <path id="path280" d="m1.66 75.898c0.012 0.059 0.055 0.168 0.125 0.321l-0.144-0.243c-0.09 0.254-0.164 0.539-0.215 0.856 0.328 4.117 3.203 6.535 8.629 7.25-0.18-0.485-0.461-0.965-0.836-1.445-0.246-0.336-0.531-0.68-0.856-1.036-0.597-0.586-1.316-1.179-2.156-1.773-1.801-1.27-3.277-2.734-4.434-4.395-0.097 0.168-0.132 0.325-0.113 0.465z" inkscape:connector-curvature="0"/>
    </clipPath>
    <clipPath id="clipPath286">
      <path id="path288" d="m-16.754 0.75541h14.84v13.928h-14.84v-13.928z" inkscape:connector-curvature="0"/>
    </clipPath>
    <mask id="mask296">
      <g id="g298">
        <g id="g300" clip-path="url(#clipPath286)">
          <path id="path302" style="fill:url(#radialGradient84)" d="m-16.754 0.75541h14.84v13.928h-14.84v-13.928z" inkscape:connector-curvature="0"/>
        </g>
      </g>
    </mask>
    <linearGradient id="linearGradient324" y2="1340.3" gradientUnits="userSpaceOnUse" x2="1610.9" gradientTransform="matrix(.72846 .33071 -.33071 .72846 -717.42 -1425.4)" y1="1340.3" x1="1594.7">
      <stop id="stop326" style="stop-color:#f8e87a" offset="0"/>
      <stop id="stop328" style="stop-color:#f7e57a" offset=".2471"/>
      <stop id="stop330" style="stop-color:#f5dc79" offset=".4314"/>
      <stop id="stop332" style="stop-color:#f1cd79" offset=".59220"/>
      <stop id="stop334" style="stop-color:#ebb878" offset=".74510"/>
      <stop id="stop336" style="stop-color:#e59e78" offset=".88240"/>
      <stop id="stop338" style="stop-color:#e08378" offset="1"/>
    </linearGradient>
    <clipPath id="clipPath348">
      <path id="path350" d="m10.047 84.066c-5.43-0.715-8.305-3.129-8.629-7.25-0.16 0.867-0.148 1.914 0.043 3.145 0.234 1.707 0.734 2.914 1.492 3.625 0.336 0.304 0.879 0.601 1.629 0.898 0.398 0.18 0.969 0.418 1.719 0.715 0.371 0.176 0.719 0.316 1.051 0.426 1.32 0.547 2.234 0.844 2.746 0.887 0.277-0.782 0.257-1.598-0.051-2.446z" inkscape:connector-curvature="0"/>
    </clipPath>
    <clipPath id="clipPath356">
      <path id="path358" d="m-16.384-2.6991h15.442v16.354h-15.442v-16.354z" inkscape:connector-curvature="0"/>
    </clipPath>
    <mask id="mask366">
      <g id="g368">
        <g id="g370" clip-path="url(#clipPath356)">
          <path id="path372" style="fill:url(#radialGradient154)" d="m-16.384-2.6991h15.442v16.354h-15.442v-16.354z" inkscape:connector-curvature="0"/>
        </g>
      </g>
    </mask>
  </defs>
  <g id="g10" transform="matrix(1.25 0 0 -1.25 0 167.98)">
    <g id="g12">
      <g id="g14" transform="matrix(-1 .087533 .087533 1 0 134.39)">
        <path id="path16" style="stroke-linejoin:round;stroke:#e08378;stroke-linecap:round;stroke-miterlimit:3;stroke-width:4.7818;fill:none" d="m-110.75 4.593 2.55-1.079c2.015-0.981 3.743-2.085 5.179-3.305 4.648-3.985 5.658-8.597 3.028-13.827-0.142-0.281-0.287-0.557-0.44-0.837-1.353-2.424-3.29-4.833-5.815-7.214-0.836-0.801-2.137-1.918-3.906-3.345-1.094-0.889-2.37-1.898-3.824-3.029-3.163-2.445-5.394-4.41-6.696-5.898-1.888-2.206-2.857-4.437-2.91-6.694-0.133-5.047 1.688-9.18 5.462-12.393 1.885-1.622 3.785-2.725 5.695-3.307" inkscape:connector-curvature="0"/>
      </g>
      <g id="g18" transform="matrix(-1 .087533 .087533 1 0 134.39)">
        <path id="path20" style="stroke-linejoin:round;stroke:#b56a61;stroke-linecap:round;stroke-miterlimit:3;stroke-width:1.5939;fill:none" d="m-112.74 2.08 2.43-0.717c1.912-0.691 3.6-1.487 5.06-2.392 4.598-2.945 5.979-6.574 4.145-10.879-0.36-0.859-0.798-1.707-1.317-2.548-1.176-1.886-2.755-3.716-4.739-5.5-1.074-0.98-3.225-2.666-6.454-5.06-0.531-0.394-1.087-0.807-1.675-1.236-3.4-2.472-5.818-4.569-7.254-6.294-2.123-2.526-3.252-5.247-3.387-8.169-0.211-5.048 1.649-9.59 5.58-13.629 1.967-1.992 3.945-3.494 5.938-4.504" inkscape:connector-curvature="0"/>
      </g>
      <g id="g22" transform="matrix(-1 .087533 .087533 1 0 134.39)">
        <path id="path24" style="stroke-linejoin:round;stroke:#e5a39d;stroke-linecap:round;stroke-miterlimit:3;stroke-width:.79696;fill:none" d="m-109.48 4.032 2.472-0.993c1.938-0.877 3.638-1.901 5.102-3.072 4.702-3.716 6.164-8.126 4.381-13.227-0.137-0.402-0.289-0.799-0.456-1.195-1.165-2.777-2.99-5.422-5.479-7.93-0.765-0.789-1.72-1.666-2.871-2.632-1.439-1.214-3.178-2.569-5.219-4.063-3.533-2.604-5.869-4.529-7.014-5.78-1.991-2.123-2.936-4.263-2.827-6.413 0.213-4.038 1.674-7.611 4.382-10.719 1.355-1.568 2.695-2.725 4.024-3.47" inkscape:connector-curvature="0"/>
      </g>
      <path id="path26" style="fill-rule:evenodd;fill:#e08378" d="m120.24 132.44c-1.742 1.086-3.215 1.711-4.418 1.875-2.41 0.328-4.75-0.605-7.015-2.805-0.957-2.257-0.95-4.593 0.027-7.003 0.582-0.743 2.234-1.688 4.961-2.848 1.078-0.457 2.586-0.762 4.519-0.918l2.379-0.074-0.043 0.254c-0.031 0.132-0.394 0.91-1.093 2.336-0.426 0.906-0.497 1.73-0.207 2.476 0.281 0.664 0.875 1.18 1.785 1.547 0.933 0.355 1.765 0.406 2.5 0.156l-1.465 2.793c-0.567 0.992-1.207 1.731-1.93 2.211z" inkscape:connector-curvature="0"/>
      <path id="path28" style="fill-rule:evenodd;fill:#ce786f" d="m108.37 125.88c0.387 0.156 0.586 0.519 0.598 1.097 0.265-0.605 0.398-1.07 0.406-1.39l-0.016-0.039c0.516-0.77 1.317-1.442 2.403-2.02 0.668-0.34 1.656-0.746 2.961-1.211l-0.153 0.453 0.883-0.375c0.356-0.121 0.664-0.179 0.926-0.172l-0.129 0.313c0.254-0.02 0.629-0.121 1.133-0.305 0.5-0.183 0.894-0.281 1.183-0.285l-0.703 0.297c0.953-0.156 1.672-0.133 2.157 0.063-0.059 0.121-0.122 0.25-0.184 0.382-0.231 0.012-0.52 0.082-0.863 0.215-0.356 0.121-0.844 0.301-1.469 0.535-2.246 0.782-2.813 1.254-1.703 1.418-0.387 0.106-0.727 0.367-1.016 0.778-0.168 0.218-0.406 0.578-0.711 1.086-0.066-0.289 0.016-0.645 0.246-1.059-0.656 0.16-1.09 0.953-1.297 2.375-0.171-0.477-0.25-0.996-0.226-1.559-0.141 0.149-0.402 0.348-0.789 0.598-0.235-0.277-0.274-0.609-0.117-0.992-0.442-0.016-1 0.234-1.68 0.754-0.688 0.496-1.113 0.953-1.285 1.371-0.16-0.309-0.387-0.875-0.68-1.707l0.125-0.621zm2.109 7.015c-0.148-0.285-0.402-0.613-0.761-0.98-0.391-0.442-0.653-0.754-0.785-0.926-0.079-0.113-0.192-0.312-0.34-0.598-0.082-0.195-0.176-0.312-0.282-0.355-0.113-0.535-0.167-0.945-0.175-1.23l0.093-0.083c0.094 0.075 0.196 0.25 0.309 0.52 0.106 0.246 0.203 0.406 0.293 0.484 0.09 0.079 0.266 0.176 0.52 0.301 0.312 0.129 0.535 0.235 0.66 0.328 0.695 0.543 1.105 0.864 1.23 0.953 0.414 0.289 0.887 0.524 1.426 0.7-0.387 0.109-0.727 0.062-1.012-0.133 0.379 0.418 0.633 0.742 0.762 0.976-0.477-0.171-0.895-0.269-1.254-0.293 0.125 0.5 0.598 0.965 1.418 1.399-0.633-0.195-1.332-0.551-2.102-1.063z" inkscape:connector-curvature="0"/>
      <path id="path30" style="fill-rule:evenodd;fill:#e5a39d" d="m122.55 128.25c-0.297 0.125-0.524 0.441-0.688 0.941-0.113 0.281-0.246 0.688-0.398 1.215-0.332 0.719-0.824 1.332-1.477 1.844-0.589 0.453-1.246 0.816-1.968 1.094-0.379 0.132-0.782 0.171-1.207 0.121-0.594-0.094-0.985-0.133-1.176-0.106 0.144-0.062 0.769-0.269 1.867-0.621 0.781-0.273 1.375-0.539 1.785-0.801 0.301-0.183 0.563-0.484 0.793-0.902 0.258-0.484 0.465-0.848 0.621-1.09 0.668-0.949 1.067-1.652 1.192-2.113 0.007-0.113 0.015-0.219 0.019-0.313 0.156 0.032 0.313 0.055 0.461 0.067l0.176 0.664z" inkscape:connector-curvature="0"/>
      <path id="path32" style="fill-rule:evenodd;fill:#e3978e" d="m119.35 129.93c0.32-0.336 0.523-0.574 0.609-0.714 0.148-0.25 0.246-0.539 0.289-0.86 0.02-0.226 0.016-0.472-0.012-0.738l0.258-0.109 0.422 0.996c0.098 0.363 0.043 0.707-0.168 1.027-0.164 0.301-0.437 0.547-0.816 0.738-0.387 0.192-0.723 0.219-1.012 0.082 0.16-0.156 0.305-0.297 0.43-0.422zm-4.141-1.261c0.016 0.109 0.172 0.508 0.461 1.195l-0.477 0.203c-0.765-0.168-1.16-0.582-1.175-1.238-0.051-0.59 0.179-1.211 0.687-1.86 0.481-0.636 1.012-1.023 1.594-1.156 0.656-0.16 1.183 0.094 1.586 0.762-0.18-0.02-0.352-0.027-0.512-0.02-0.551 0.032-1.031 0.235-1.433 0.61-0.118 0.109-0.231 0.238-0.34 0.383-0.313 0.421-0.442 0.793-0.391 1.121z" inkscape:connector-curvature="0"/>
      <path id="path34" style="fill-rule:evenodd;fill:#b76b62" d="m119.35 129.93c-0.203 0.098-0.442 0.192-0.707 0.278-1.293 0.422-2.075 0.23-2.348-0.567 0.098 0.067 0.199 0.121 0.312 0.172 0.442 0.16 0.875 0.149 1.293-0.027 0.414-0.176 0.723-0.481 0.914-0.91 0.157-0.43 0.153-0.852-0.011-1.258l-0.016-0.035c-0.09-0.278-0.25-0.66-0.484-1.141 0.621-0.176 1.058-0.101 1.312 0.223 0.18 0.215 0.352 0.691 0.524 1.433 0.039 0.086 0.078 0.172 0.109 0.258-0.043 0.324-0.141 0.61-0.289 0.86-0.086 0.14-0.289 0.378-0.609 0.714z" inkscape:connector-curvature="0"/>
      <path id="path36" style="fill-rule:evenodd;fill:#b56a61" d="m108.37 125.88 0.422-1.262c0.488-0.758 2.18-1.754 5.078-2.984 1.078-0.457 2.609-0.774 4.594-0.95l2.496-0.105c-0.023 0.027-0.051 0.055-0.074 0.078l-0.18-0.012-0.055 0.282c-0.023 0.097-0.234 0.558-0.632 1.379-0.485-0.196-1.204-0.219-2.157-0.063l0.703-0.297c-0.289 0.004-0.683 0.102-1.183 0.285-0.504 0.184-0.879 0.285-1.133 0.305l0.129-0.313c-0.262-0.007-0.57 0.051-0.926 0.172l-0.883 0.375 0.153-0.453c-1.305 0.465-2.293 0.871-2.961 1.211-1.086 0.578-1.887 1.25-2.403 2.02l0.016 0.039c-0.008 0.32-0.145 0.785-0.406 1.39-0.012-0.578-0.211-0.941-0.598-1.097z" inkscape:connector-curvature="0"/>
      <g id="g38">
        <g id="g40">
          <g id="g46">
            <path id="path64" style="fill-rule:evenodd;fill:url(#linearGradient48)" d="m124.78 117.35c1.672-1.316 2.657-3.167 2.946-5.55 0.16-1.196 0.296-1.965 0.414-2.305 3.273 7.445 0.414 12.035-8.582 13.77 0.699-1.426 1.062-2.204 1.093-2.336l0.055-0.282 0.18 0.012c0.558-0.527 1.222-1.113 1.988-1.758 0.582-0.48 1.215-0.996 1.906-1.551z" inkscape:connector-curvature="0"/>
          </g>
        </g>
      </g>
      <path id="path66" style="fill-rule:evenodd;fill:#584e3f" d="m123.08 118.76 1.699-1.418c1.672-1.316 2.657-3.167 2.946-5.55 0.16-1.196 0.296-1.965 0.414-2.305 1.671 3.809 1.754 6.859 0.234 9.156l-0.219 0.094c-0.218-0.371-0.398-0.934-0.543-1.684-0.304 0.102-0.722 0.309-1.254 0.622-0.5 0.328-0.914 0.546-1.242 0.656-0.441 0.129-1.117 0.273-2.035 0.429z" inkscape:connector-curvature="0"/>
      <g id="g68">
        <g id="g70" clip-path="url(#clipPath72)">
          <g id="g76" transform="matrix(-.73635 .31260 -.31260 -.73635 120.93 126.5)">
            <g id="g98" mask="url(#mask90)">
              <path id="path106" style="fill-rule:evenodd;fill:url(#radialGradient100)" d="m129.05 113.28c-0.004 0.059-0.028 0.172-0.074 0.336l0.105-0.262c0.129 0.235 0.246 0.504 0.344 0.809 0.328 4.121-2.129 6.961-7.375 8.52 0.101-0.504 0.301-1.024 0.597-1.555 0.192-0.371 0.418-0.758 0.68-1.16 0.496-0.672 1.113-1.371 1.852-2.09 1.578-1.539 2.804-3.219 3.683-5.039 0.121 0.152 0.184 0.297 0.188 0.441z" inkscape:connector-curvature="0"/>
            </g>
          </g>
        </g>
      </g>
      <g id="g108">
        <g id="g110">
          <g id="g116">
            <path id="path134" style="fill-rule:evenodd;fill:url(#linearGradient118)" d="m121.14 127.28c-0.91-0.367-1.504-0.883-1.785-1.547-0.29-0.746-0.219-1.57 0.207-2.476 8.996-1.735 11.855-6.325 8.582-13.77 0.011-0.035 0.027-0.07 0.043-0.105 0.089-0.125 0.175-0.09 0.261 0.109 1.555 2.844 2.481 5.16 2.774 6.945 0.23 1.293 0.238 2.305 0.027 3.031-0.199 0.692-0.676 1.375-1.434 2.043-0.507 0.446-1.574 1.348-3.199 2.704-0.402 0.347-0.765 0.66-1.078 0.937-0.84 0.82-1.414 1.484-1.719 1.988l-0.179 0.297c-0.735 0.25-1.567 0.199-2.5-0.156z" inkscape:connector-curvature="0"/>
          </g>
        </g>
      </g>
      <path id="path136" style="fill-rule:evenodd;fill:#584e3f" d="m129.3 120.52c0.355-0.527 0.551-0.914 0.59-1.164l-0.532 0.184c-0.132-0.727-0.461-1.023-0.984-0.887 1.52-2.297 1.437-5.347-0.234-9.156 0.011-0.035 0.027-0.07 0.043-0.105 0.089-0.125 0.175-0.09 0.261 0.109 1.555 2.844 2.481 5.16 2.774 6.945 0.226 1.207 0.25 2.156 0.074 2.836-0.148 0.672-0.543 1.317-1.176 1.934l-1.156 0.449c-0.078-0.316 0.035-0.695 0.34-1.145z" inkscape:connector-curvature="0"/>
      <g id="g138">
        <g id="g140" clip-path="url(#clipPath142)">
          <g id="g146" transform="matrix(-.73635 .31260 -.31260 -.73635 121.03 126.63)">
            <g id="g168" mask="url(#mask160)">
              <path id="path176" style="fill-rule:evenodd;fill:url(#radialGradient170)" d="m122.05 122.68c5.246-1.559 7.703-4.399 7.375-8.52 0.293 0.832 0.445 1.871 0.453 3.113 0.035 1.723-0.266 2.992-0.902 3.813-0.286 0.355-0.774 0.734-1.469 1.148-0.36 0.238-0.891 0.563-1.586 0.977-0.336 0.226-0.656 0.422-0.965 0.582-1.219 0.75-2.078 1.187-2.574 1.312-0.399-0.73-0.508-1.539-0.332-2.425z" inkscape:connector-curvature="0"/>
            </g>
          </g>
        </g>
      </g>
      <path id="path178" style="fill-rule:evenodd;fill:#504739" d="m118.8 127.62c0.164 0.406 0.168 0.824 0.011 1.258-0.191 0.429-0.5 0.734-0.914 0.91-0.418 0.176-0.851 0.187-1.293 0.027-0.109-0.051-0.214-0.105-0.312-0.172-0.27-0.187-0.469-0.437-0.598-0.746-0.179-0.418-0.187-0.847-0.027-1.293 0.074-0.164 0.164-0.312 0.27-0.437 0.402-0.375 0.882-0.578 1.433-0.61 0.164 0.012 0.332 0.051 0.504 0.11 0.43 0.195 0.734 0.5 0.91 0.918l0.016 0.035zm-0.528 1.312c0.258-0.484 0.231-0.82-0.082-1.007-0.343-0.2-0.656-0.082-0.933 0.355-0.258 0.484-0.235 0.82 0.078 1.008 0.152 0.082 0.312 0.082 0.484 0.012 0.18-0.051 0.332-0.172 0.453-0.368z" inkscape:connector-curvature="0"/>
      <path id="path180" style="fill-rule:evenodd;fill:#84765e" d="m118.27 128.93c-0.121 0.196-0.273 0.317-0.453 0.368-0.172 0.07-0.332 0.07-0.484-0.012-0.313-0.188-0.336-0.524-0.078-1.008 0.277-0.437 0.59-0.555 0.933-0.355 0.313 0.187 0.34 0.523 0.082 1.007z" inkscape:connector-curvature="0"/>
      <path id="path182" style="fill-rule:evenodd;fill:#c7c3ae" d="m95.824 62.582-0.914 0.82-12.348-52.98c0.168-0.274 0.458-0.391 0.86-0.352 0.324 0.031 0.582 0.129 0.766 0.293l0.195 0.234 11.441 51.985z" inkscape:connector-curvature="0"/>
      <path id="path184" style="fill-rule:evenodd;fill:#747265" d="m93.719 53.07 1.601 7.125-1.175-0.113-11.583-49.66c0.168-0.274 0.458-0.391 0.86-0.352 0.324 0.031 0.582 0.129 0.766 0.293l0.195 0.234v0.043c-0.621-0.089-1.004 0.079-1.149 0.497l9.704 42.203c0.195-0.157 0.453-0.246 0.781-0.27z" inkscape:connector-curvature="0"/>
      <path id="path186" style="fill-rule:evenodd;fill:#ffffff" d="m91.066 41.035 2.434 11.059-0.418 0.48-7.035-32.508c1.949 8.281 3.625 15.27 5.019 20.969z" inkscape:connector-curvature="0"/>
      <path id="path188" style="fill-rule:evenodd;fill:#c7c3ae" d="m94.355 60.605 10.065-55.328c0.086-0.328 0.433-0.512 1.047-0.555 0.293-0.019 0.551 0.043 0.773 0.188l0.219 0.266-11.039 56.359-1.067-0.93z" inkscape:connector-curvature="0"/>
      <path id="path190" style="fill-rule:evenodd;fill:#747265" d="m95.422 61.535-1.106-0.926 10.064-55.332c0.004-0.32 0.312-0.5 0.926-0.543 0.293-0.019 0.523 0.043 0.695 0.192l0.137 0.273c-0.536 0.008-1.012 0.231-1.438 0.66l-8.883 49.235 0.719-0.051-0.031 0.164 0.156-0.051-1.242 6.379z" inkscape:connector-curvature="0"/>
      <path id="path192" style="fill-rule:evenodd;fill:#ffffff" d="m96.699 55.035-0.16 0.008c0.242-1.485 0.816-4.797 1.723-9.938 1.074-6.113 1.843-10.281 2.304-12.504 0.539-2.703 1.637-8.48 3.301-17.324-1.32 7.883-2.515 15.012-3.582 21.391l-3.586 18.367z" inkscape:connector-curvature="0"/>
      <path id="path194" style="fill-rule:evenodd;fill:#ffffff" d="m96.664 55.156-0.156 0.051 0.031-0.164 0.16-0.008-0.035 0.121z" inkscape:connector-curvature="0"/>
      <path id="path196" style="fill-rule:evenodd;fill:#c7c3ae" d="m63.922 53.289 8.859-47.844c0.086-0.273 0.395-0.43 0.926-0.473 0.242-0.019 0.457 0.032 0.656 0.149l0.215 0.184-9.715 48.753-0.941-0.769z" inkscape:connector-curvature="0"/>
      <path id="path198" style="fill-rule:evenodd;fill:#747265" d="m65.555 44.535c0.191 0.012 0.383 0.062 0.574 0.152l0.211 0.106 7.605-38.836-0.222-0.266c-0.254-0.191-0.567-0.261-0.938-0.207l-0.004-0.039c0.086-0.273 0.395-0.43 0.926-0.473 0.242-0.019 0.457 0.032 0.656 0.149l0.215 0.184-9.113 45.695-1.156 0.094 1.246-6.559z" inkscape:connector-curvature="0"/>
      <path id="path200" style="fill-rule:evenodd;fill:#ffffff" d="m65.727 43.637 1.886-10.176c1.11-5.246 2.434-11.676 3.973-19.293l-5.422 29.918-0.437-0.449z" inkscape:connector-curvature="0"/>
      <path id="path202" style="fill-rule:evenodd;fill:#c7c3ae" d="m65.121 49.769-1.066 0.868-10.676-50.196c0.183-0.308 0.516-0.453 0.992-0.441 0.371 0.012 0.652 0.094 0.856 0.242l0.179 0.223 9.715 49.304z" inkscape:connector-curvature="0"/>
      <path id="path204" style="fill-rule:evenodd;fill:#747265" d="m64.055 50.637-1.203-5.68 0.156 0.039-0.028-0.145 0.715 0.02l-8.57-43.875-0.457-0.266c-0.356-0.203-0.691-0.297-1.012-0.281 0.106-0.309 0.399-0.457 0.871-0.445 0.371 0.011 0.645 0.093 0.817 0.242l0.101 0.219 9.715 49.304-1.105 0.868z" inkscape:connector-curvature="0"/>
      <path id="path206" style="fill-rule:evenodd;fill:#ffffff" d="m62.82 44.847-3.468-16.359c-1.028-5.687-2.184-12.043-3.469-19.074 1.601 7.883 2.672 13.027 3.211 15.433 0.445 1.981 1.187 5.696 2.226 11.145 0.871 4.578 1.422 7.535 1.66 8.859l-0.16-0.004z" inkscape:connector-curvature="0"/>
      <path id="path208" style="fill-rule:evenodd;fill:#ffffff" d="m62.98 44.851 0.028 0.145-0.156-0.039-0.032-0.11 0.16 0.004z" inkscape:connector-curvature="0"/>
      <g id="g210" transform="matrix(-1 .087533 .087533 1 0 134.39)">
        <path id="path212" style="stroke-linejoin:round;stroke:#e08378;stroke-linecap:round;stroke-miterlimit:3;stroke-width:4.7818;fill:none" d="m-23.563-45.656c-2.739 1.193-5.631 1.844-8.688 1.952-3.108 0.104-5.633-0.574-7.573-2.033-1.858-1.329-3.174-3.374-3.943-6.135-0.107-0.241-0.174-0.465-0.2-0.678-0.665-2.684-0.61-5.181 0.16-7.494 0.479-1.538 1.488-3.4 3.028-5.578 1.407-2.045 2.217-3.546 2.43-4.502 0.427-1.596-0.107-3.229-1.593-4.903-3.294-3.849-7.412-4.66-12.354-2.431-1.486 0.693-2.988 1.649-4.502 2.871l-1.794 1.595" inkscape:connector-curvature="0"/>
      </g>
      <g id="g214" transform="matrix(-1 .087533 .087533 1 0 134.39)">
        <path id="path216" style="stroke-linejoin:round;stroke:#b56a61;stroke-linecap:round;stroke-miterlimit:3;stroke-width:1.5939;fill:none" d="m-23.803-48.846c-2.416 1.356-4.943 2.261-7.571 2.709-3.241 0.558-5.791 0.16-7.652-1.193-1.249-0.93-2.176-2.286-2.789-4.065-0.161-0.45-0.291-0.915-0.4-1.394-0.609-2.365-0.557-4.584 0.16-6.655 0.506-1.407 1.635-3.323 3.389-5.738 1.594-2.178 2.483-3.893 2.671-5.14 0.317-1.993-0.442-4.106-2.274-6.336-3.242-3.88-7.652-4.955-13.228-3.229-1.728 0.558-3.469 1.327-5.223 2.313l-2.152 1.434" inkscape:connector-curvature="0"/>
      </g>
      <g id="g218" transform="matrix(-1 .087533 .087533 1 0 134.39)">
        <path id="path220" style="stroke-linejoin:round;stroke:#e5a39d;stroke-linecap:round;stroke-miterlimit:3;stroke-width:.79696;fill:none" d="m-24.88-45.221c-2.552 1.196-5.327 1.889-8.327 2.073-2.843 0.186-5.262-0.227-7.252-1.232-2.125-1.119-3.734-2.939-4.822-5.461-0.025-0.025-0.054-0.081-0.08-0.161-1.328-3.161-1.674-6.096-1.036-8.804 0.424-1.756 1.446-3.732 3.066-5.94 1.674-2.334 2.63-3.863 2.872-4.58 0.505-1.595 0.012-3.161-1.474-4.703-2.896-2.867-6.377-3.508-10.441-1.914-1.247 0.48-2.512 1.157-3.787 2.035l-1.473 1.152" inkscape:connector-curvature="0"/>
      </g>
      <path id="path222" style="fill-rule:evenodd;fill:#e5a39d" d="m80.586 80.523c-0.418-0.179-1.262-0.652-2.535-1.426l-1.082-0.91c-0.293-0.293-0.735-0.75-1.324-1.367l-0.821-0.652 0.985 0.234c0.488 0.094 1.054 0.445 1.699 1.059 0.648 0.719 1.121 1.211 1.414 1.48 1.043 0.899 2.418 1.649 4.133 2.25-0.535 0.02-1.36-0.203-2.469-0.668zm-8.852-6.613c-2.492-0.023-3.75-0.035-3.777-0.031l-1.211-0.094c-0.066-0.129-0.293-0.297-0.687-0.504-0.305-0.133-0.434-0.375-0.387-0.73 1.828 0.402 3.039 0.605 3.629 0.609 2.363 0.086 3.906 0.273 4.625 0.559-0.446 0.089-1.137 0.152-2.071 0.179l-0.121 0.012zm7.004 1.555c-0.336-0.157-0.797-0.399-1.39-0.723 0.285-0.133 0.757-0.066 1.425 0.199 0.696 0.313 1.168 0.5 1.415 0.559 1.226 0.265 2.039 0.383 2.437 0.347 0.41-0.199 0.75-0.308 1.016-0.332 0.851-0.074 1.945 0.379 3.289 1.36 1.375 1.004 2.422 1.5 3.144 1.492-0.879 0.078-1.515 0.105-1.922 0.086-0.644-0.023-1.269-0.141-1.875-0.356-0.304-0.109-0.875-0.339-1.707-0.695-0.695-0.285-1.261-0.492-1.703-0.613l-2.676-0.77c-0.406-0.07-0.89-0.257-1.453-0.554zm-0.996-7.223c0.399-0.035 1.086-0.133 2.063-0.301 0.871-0.156 1.57-0.258 2.101-0.304 1.117-0.098 1.926-0.032 2.426 0.191 0.199 0.117 0.313 0.199 0.344 0.25 0.086 0.047 0.246 0.074 0.488 0.078 0.27 0.031 0.606 0.016 1-0.047 0.449-0.066 0.781-0.109 0.992-0.129 0.828-0.015 1.977 0.11 3.446 0.383 0.41 0.07 1.207 0 2.394-0.211 0.84-0.18 1.699 0.012 2.578 0.578 0.766 0.469 1.438 1.121 2.02 1.953-1.231 0.321-2.707 0.278-4.43-0.136l-2.027-0.664c-0.524-0.196-1.145-0.571-1.864-1.121-0.48-0.282-1.211-0.379-2.195-0.293-0.531 0.046-1.285 0.156-2.258 0.32l-8.011 0.699-8.957-1.422c0.554-0.074 1.293-0.058 2.21 0.047 1.407 0.172 2.137 0.254 2.192 0.25 1.855 0.106 3.684 0.067 5.488-0.121zm0.035 2.688 0.871 0.328 0.547 0.273c-0.187-0.012-1.027 0.047-2.511 0.18l-3.469 0.301c-1.832 0.16-3.172 0.171-4.012 0.031-1.383-0.199-2.574-0.793-3.57-1.778l-0.883-0.925c0.254 0.164 0.641 0.304 1.16 0.422 0.574 0.136 0.973 0.25 1.195 0.335 1.102 0.68 1.942 1.102 2.52 1.266 0.465 0.121 0.988 0.129 1.566 0.024 0.188-0.016 0.7-0.129 1.539-0.336 1.52-0.348 2.915-0.469 4.184-0.368 0.242 0.036 0.531 0.118 0.863 0.247zm-12.343 2.566c1.183 0.648 2.132 0.98 2.859 0.996-0.297 0-1.051 0.051-2.273 0.16l-1.102-1.109c-0.113-0.071-0.324-0.188-0.633-0.348-0.23-0.168-0.367-0.344-0.41-0.527 0.242-0.02 0.504 0.078 0.789 0.293 0.457 0.336 0.715 0.515 0.77 0.535zm5.652 1.715c1.496-0.051 2.742 0.269 3.738 0.957l-3.738-0.957zm35.269-8.106c-0.117-0.39-0.132-0.738-0.05-1.039l0.59-0.133c-0.04 0.485 0.039 0.918 0.234 1.305l-0.219-0.183-0.555 0.05zm-17.942 19.399c0.621-0.242 0.984-0.367 1.09-0.379-0.981-0.18-1.578-0.301-1.797-0.363 0.367-0.383 1.109-0.594 2.23-0.637 1.231 0 2.075-0.035 2.524-0.102 1-0.195 1.801-0.504 2.406-0.933 0.5-0.391 1.024-1 1.567-1.825 0.425-0.652 1.374-1.71 2.855-3.179 1.23-1.231 2.031-2.321 2.402-3.262 0.61-1.605 0.914-2.422 0.91-2.449 0.469-1.059 0.934-1.715 1.395-1.969 0.297 0.32 0.715 0.379 1.258 0.172 0.644-0.297 1.113-0.461 1.406-0.484l-0.133-1.957c0.508 0.597 1.301 0.929 2.375 0.996 1.426 0.062 2.278 0.148 2.555 0.257-0.149 0.176-0.356 0.395-0.625 0.657-0.219 0.289-0.379 0.597-0.481 0.925l0.399-0.035c-0.051 0.059-0.68 0.957-1.895 2.696-0.789 1.089-1.3 1.949-1.539 2.586l0.055-0.286c-0.48 0.336-1.035 1.039-1.664 2.114-0.649 1.125-1.184 1.883-1.606 2.269-0.89 0.824-2.453 1.942-4.687 3.34-2.938 1.945-6.602 2.559-11 1.848zm4.219-11.895c-0.836-0.062-1.84-0.226-3.016-0.5l-1.004-0.433c0.774-0.067 1.774-0.09 3.008-0.063 1.746 0.063 2.566 0.27 2.465 0.629-0.063 0.219-0.547 0.34-1.453 0.367z" inkscape:connector-curvature="0"/>
      <path id="path224" style="fill-rule:evenodd;fill:#e08378" d="m80.586 80.523c1.109 0.465 1.934 0.688 2.469 0.668-1.715-0.601-3.09-1.351-4.133-2.25-0.293-0.269-0.766-0.761-1.414-1.48-0.645-0.614-1.211-0.965-1.699-1.059l-0.985-0.234 0.821 0.652c0.589 0.617 1.031 1.074 1.324 1.367l1.082 0.91c1.273 0.774 2.117 1.247 2.535 1.426zm-0.488-3.289c-0.039-0.133-0.063-0.25-0.071-0.355 0.387 0.152 0.664 0.261 0.828 0.328-0.187-0.012-0.441-0.004-0.757 0.027zm-5.676-0.148c-0.008-0.078-0.027-0.156-0.059-0.235-0.027 0.004-0.054-0.007-0.086-0.031 0.063 0.098 0.114 0.188 0.145 0.266zm2.301-1.688-0.332-0.129 0.164 0.024 0.168 0.105zm5.105 3.731c0.531 0.273 1.059 0.468 1.578 0.586-1.402-0.735-2.351-1.336-2.847-1.801 1.882 1.016 3.855 1.242 5.921 0.687-0.113-0.07-0.226-0.129-0.335-0.171-0.083-0.02-0.153-0.055-0.211-0.102-0.243-0.031-0.473-0.078-0.696-0.141-0.523-0.168-1.172-0.539-1.941-1.113-0.668-0.289-1.031-0.445-1.086-0.469-0.906-0.242-1.527-0.32-1.867-0.238l-0.289-0.055-0.043-0.035c-2.293-1.14-4.293-1.805-5.996-2.004-0.473-0.176-1.192-0.301-2.161-0.375 0.934-0.027 1.625-0.09 2.071-0.179-0.719-0.286-2.262-0.473-4.625-0.559-0.59-0.004-1.801-0.207-3.629-0.609-0.047 0.355 0.082 0.597 0.387 0.73 0.394 0.207 0.621 0.375 0.687 0.504l1.211 0.094c0.027-0.004 1.285 0.008 3.777 0.031l0.618 0.145c-0.727-0.043-1.981 0.015-3.762 0.167l4.055 0.45-0.93-0.078c1.18 0.324 2.015 0.558 2.512 0.703 1.128 0.383 2.191 0.894 3.183 1.527l2.895 1.875c0.48 0.281 0.988 0.422 1.523 0.43zm6.652 0.301c-0.527-0.196-1.125-0.45-1.792-0.766-0.34 0.402-0.891 1.016-1.649 1.832l0.297 0.172 0.359-0.031c0.426-0.036 0.731-0.079 0.914-0.122 0.442-0.117 0.907-0.343 1.383-0.679 0.176-0.153 0.34-0.285 0.488-0.406zm0.18-2.989 0.203 0.024 5.102 0.961c-0.32-0.321-0.785-0.575-1.391-0.762l-1.394-0.32c0.386-0.489 0.824-1.012 1.312-1.563-1.183-0.055-2.402-0.336-3.648-0.844-0.223-0.062-0.469-0.121-0.739-0.175-0.054 0.003-0.109-0.004-0.164-0.028-1.257-0.289-2.253-0.512-2.988-0.66-0.898-0.164-1.398-0.227-1.504-0.191-0.312 0.082-0.293 0.293 0.059 0.636l-1.711-0.25c-3.117-0.156-5.363 0.028-6.738 0.551l1.582 0.18-0.383 0.195c0.394-0.058 0.945-0.066 1.644-0.023l4.172 0.437c0.731 0.071 1.715 0.293 2.949 0.668l-1.211-0.539 2.793 1.16c1.317 0.367 2 0.551 2.055 0.543zm-9.922-0.976c0.563 0.3 1.047 0.484 1.453 0.554l2.676 0.77c0.442 0.121 1.008 0.328 1.703 0.613 0.832 0.356 1.403 0.586 1.707 0.695 0.606 0.215 1.231 0.333 1.875 0.356 0.407 0.019 1.043-0.008 1.922-0.086-0.722 0.008-1.769-0.488-3.144-1.492-1.344-0.981-2.438-1.434-3.289-1.36-0.266 0.024-0.606 0.133-1.016 0.332-0.398 0.036-1.211-0.082-2.437-0.347-0.247-0.059-0.719-0.246-1.415-0.559-0.668-0.265-1.14-0.332-1.425-0.199 0.593 0.324 1.054 0.566 1.39 0.723zm-0.961-4.535c-0.332-0.129-0.621-0.211-0.863-0.247-1.269-0.101-2.664 0.02-4.184 0.368-0.839 0.207-1.351 0.32-1.539 0.336-0.578 0.105-1.101 0.097-1.566-0.024-0.578-0.164-1.418-0.586-2.52-1.266-0.222-0.085-0.621-0.199-1.195-0.335-0.519-0.118-0.906-0.258-1.16-0.422l0.883 0.925c0.996 0.985 2.187 1.579 3.57 1.778 0.84 0.14 2.18 0.129 4.012-0.031l3.469-0.301c1.484-0.133 2.324-0.192 2.511-0.18l-0.547-0.273-0.871-0.328zm-0.035-2.688c-1.804 0.188-3.633 0.227-5.488 0.121-0.055 0.004-0.785-0.078-2.192-0.25-0.917-0.105-1.656-0.121-2.21-0.047l8.957 1.422 8.011-0.699c0.973-0.164 1.727-0.274 2.258-0.32 0.984-0.086 1.715 0.011 2.195 0.293 0.719 0.55 1.34 0.925 1.864 1.121l2.027 0.664c1.723 0.414 3.199 0.457 4.43 0.136-0.582-0.832-1.254-1.484-2.02-1.953-0.879-0.566-1.738-0.758-2.578-0.578-1.187 0.211-1.984 0.281-2.394 0.211-1.469-0.273-2.618-0.398-3.446-0.383-0.211 0.02-0.543 0.063-0.992 0.129-0.394 0.063-0.73 0.078-1 0.047-0.242-0.004-0.402-0.031-0.488-0.078-0.031-0.051-0.145-0.133-0.344-0.25-0.5-0.223-1.309-0.289-2.426-0.191-0.531 0.046-1.23 0.148-2.101 0.304-0.977 0.168-1.664 0.266-2.063 0.301zm6.469 1.402c-0.676-0.074-1.52-0.066-2.527 0.02l-6.059 0.531c2.211-0.14 5.031 0.418 8.457 1.668 1.137 0.41 2.34 0.707 3.613 0.891 0.356 0.074 0.77 0.093 1.25 0.051 0.746-0.04 1.172-0.063 1.278-0.071 1.039 0.231 1.82 0.293 2.347 0.196l1.149-0.184c0.16 0.016 0.308 0.016 0.441 0.004 0.156-0.043 0.324-0.11 0.504-0.207 0.645-0.59 1.152-1.063 1.524-1.418-1.11-0.117-2.426-0.309-3.95-0.578-1.738-0.328-3.875-0.715-6.402-1.164l-0.164-0.028-1.086-0.023-0.215 0.301-0.16 0.011zm-2.027-6.207 0.796-0.027-1.316 0.074 0.52-0.047zm-6.118-6.57-1.496 1.254c-2.316 0.445-3.886 0.875-4.707 1.297-0.511 0.285-0.929 0.668-1.261 1.152-0.407 0.598-0.442 1.11-0.11 1.535 1.848-0.937 3.352-1.496 4.512-1.679 1.953-0.305 3.359-0.442 4.219-0.411l0.148 0.309c-0.582 0.695-1.289 1.934-2.121 3.723-1.707 0.683-3.598 0.98-5.664 0.894-1.992-0.094-3.926-0.5-5.809-1.219l-1.078 0.098-0.215 0.297c0.809 0.063 1.594 0.289 2.348 0.68 0.367 0.207 1.035 0.644 2.004 1.308 0.684 0.477 1.734 0.867 3.152 1.172l-1.254 0.348 2.196-0.149c2.258 0.391 4.207 0.352 5.855-0.113 1.106-0.523 1.926-0.906 2.469-1.141 1.008-0.406 1.887-0.445 2.641-0.109 0.96 0.586 1.742 0.945 2.343 1.082 0.379 0.07 1.457 0.137 3.227 0.195-0.352-0.046-0.766-0.183-1.238-0.41-0.532-0.25-0.86-0.5-0.993-0.758 0.364-0.164 0.961-0.07 1.793 0.286 0.868 0.433 1.469 0.699 1.797 0.804 0.551 0.168 1.184 0.235 1.906 0.196 0.239-0.02 0.903-0.094 1.989-0.215 0.664-0.059 1.367-0.266 2.113-0.625 0.383-0.196 1.02-0.571 1.91-1.133l1.91-0.164c0.614-0.027 1.133 0.086 1.559 0.344l-1.555-1.231c0.34 0.238 0.727 0.528 1.16 0.863 1.754 1.399 2.84 2.161 3.25 2.286 0.164 0.039 0.289 0.093 0.379 0.168 0.071-0.086 0.157-0.176 0.258-0.262 0.766-0.711 1.633-1.203 2.602-1.473 0.117-0.469 0.383-0.797 0.793-0.996-0.11 0.254-0.18 0.539-0.203 0.863 0.921-0.16 1.773-0.062 2.554 0.297l2.879-1.496c0.102 0.207 0.188 0.426 0.262 0.66 0.609 1.766 0.414 3.832-0.582 6.196-1.328 3.191-2.699 5.722-4.117 7.586-2.715 3.531-6.133 5.906-10.258 7.121-3.598 1.093-7.067 1.371-10.406 0.832-3.665-0.563-6.668-2.039-9.02-4.43-1.617-1.625-2.937-3.586-3.969-5.879-0.824-0.246-1.816-0.414-2.976-0.5-1.672 0.145-3.387 0.11-5.149-0.113-0.758-0.094-1.504-0.215-2.238-0.363 2.098-0.481 3.746-0.758 4.945-0.836-0.429 0.011-0.98-0.02-1.656-0.098-3.582-0.246-6.199-0.5-7.855-0.758-1.598-0.824-3.11-1.883-4.536-3.176-1.718-1.589-3.507-3.843-5.367-6.757-0.683-1.063-1.16-2.094-1.437-3.086 1.66 0.308 3.207 0.214 4.633-0.286 1.14-0.449 1.921-1.144 2.347-2.093 0.113-0.223 0.18-0.563 0.192-1.02-0.016-0.48 0.007-0.816 0.074-1.012 0.176-0.441 0.562-0.906 1.16-1.386 0.227-0.18 0.734-0.516 1.52-1.016 0.531-0.34 1.703-0.59 3.507-0.746 1.219-0.137 2.137-0.187 2.758-0.164 0.582-0.051 1.063-0.078 1.438-0.086 0.668 0.023 1.097 0.16 1.281 0.41-0.277 0.238-0.914 0.442-1.914 0.61-0.899 0.16-1.461 0.449-1.692 0.871 1.704-0.094 3.004-0.086 3.895 0.019 0.644 0.028 1.144 0.063 1.496 0.113 0.625 0.079 1.078 0.239 1.367 0.481-1.187 0.184-1.953 0.32-2.293 0.402-0.91 0.293-1.5 0.746-1.769 1.36 0.148 0.148 0.328 0.211 0.539 0.195l0.719-0.066 4.421-0.387c1.391-0.039 2.637-0.016 3.743 0.074l0.675-0.539zm-10.632 16.629c-0.055-0.02-0.313-0.199-0.77-0.535-0.285-0.215-0.547-0.313-0.789-0.293 0.043 0.183 0.18 0.359 0.41 0.527 0.309 0.16 0.52 0.277 0.633 0.348l1.102 1.109c1.218-0.109 1.976-0.16 2.273-0.16-0.727-0.016-1.676-0.348-2.859-0.996zm5.14-3.219c-1.164-0.14-2.758-0.59-4.777-1.347l-0.664-0.266c-0.219-0.059-0.438-0.094-0.653-0.102l5.59 1.918c0.192 0.36 0.844 0.489 1.961 0.391 0.801-0.043 1.567-0.164 2.297-0.359-0.394-0.207-1.004-0.29-1.828-0.243-1.039 0.036-1.684 0.039-1.926 0.008zm0.512 4.934 3.738 0.957c-0.996-0.688-2.242-1.008-3.738-0.957zm-21.457-22.215v0.039c-0.246 0.238-0.473 0.539-0.684 0.906 0.188-0.34 0.387-0.625 0.61-0.859l0.074-0.086zm38.578 4.976c0.004-0.562-0.004-1.109-0.023-1.644-0.039-1.387-0.278-2.586-0.715-3.59 0.593 1.285 0.84 3.031 0.738 5.234zm22.199 3.157c-0.234-0.246-0.465-0.457-0.695-0.621 0.086 0.047 0.156 0.093 0.215 0.14 0.172 0.145 0.332 0.305 0.48 0.481zm-21.992 25.375c4.398 0.711 8.066 0.097 11-1.848 2.234-1.398 3.797-2.516 4.687-3.34 0.422-0.386 0.957-1.144 1.606-2.269 0.629-1.075 1.184-1.778 1.664-2.114l-0.055 0.286c0.239-0.637 0.75-1.5 1.539-2.586 1.215-1.739 1.844-2.637 1.895-2.696l-0.399 0.035c0.102-0.328 0.262-0.636 0.481-0.925 0.269-0.262 0.476-0.481 0.625-0.657-0.277-0.109-1.129-0.195-2.555-0.257-1.074-0.067-1.867-0.399-2.375-0.996l0.133 1.957c-0.293 0.023-0.762 0.187-1.406 0.484-0.543 0.207-0.961 0.148-1.258-0.172-0.461 0.254-0.926 0.91-1.395 1.969 0.004 0.027-0.3 0.844-0.91 2.449-0.371 0.941-1.172 2.031-2.402 3.262-1.481 1.469-2.43 2.527-2.855 3.179-0.543 0.825-1.067 1.434-1.567 1.825-0.605 0.429-1.406 0.738-2.406 0.933-0.449 0.067-1.293 0.102-2.524 0.102-1.121 0.043-1.863 0.258-2.23 0.637 0.219 0.062 0.816 0.183 1.797 0.363-0.106 0.012-0.469 0.137-1.09 0.379zm17.937-19.399 0.555-0.05 0.219 0.183c-0.195-0.387-0.274-0.82-0.234-1.305l-0.59 0.133c-0.082 0.301-0.067 0.649 0.05 1.039zm-15.176-2.648c-0.258 0.078-0.496 0.137-0.707 0.183-1.286 0.274-2.434 0.321-3.438 0.141 0.649 0.102 1.387 0.106 2.207 0.008l0.676-0.063c0.398-0.058 0.816-0.148 1.262-0.269zm-2.082 15.199c0.003 0.051-0.004 0.094-0.028 0.125l0.071-0.09-0.043-0.035zm5.839-2.559 1.559 0.387c-0.148-0.176-0.48-0.293-0.992-0.355l-0.567-0.032zm-2.304-2.488c0.906-0.027 1.39-0.148 1.453-0.367 0.101-0.359-0.719-0.566-2.465-0.629-1.234-0.027-2.234-0.004-3.008 0.063l1.004 0.433c1.176 0.274 2.18 0.438 3.016 0.5zm-8.149-0.41c-0.367-0.211-0.679-0.422-0.937-0.641l-0.004-0.039 0.258 0.215c0.199 0.145 0.429 0.301 0.683 0.465z" inkscape:connector-curvature="0"/>
      <path id="path226" style="fill-rule:evenodd;fill:#8c534b" d="m80.559 77.914c0.496 0.465 1.445 1.066 2.847 1.801-0.519-0.118-1.047-0.313-1.578-0.586-0.367-0.235-0.871-0.633-1.508-1.192-0.695-0.582-1.199-0.98-1.511-1.195-0.457-0.336-1.153-0.781-2.086-1.344l-0.168-0.105-0.172-0.106c0.215-0.015 0.875 0.192 1.984 0.629h0.039l1.633 0.778 0.047 0.039c-0.047 0.082-0.066 0.164-0.059 0.246 0.008 0.105 0.032 0.222 0.071 0.355 0.035 0.102 0.082 0.207 0.144 0.309l0.141 0.187c0.055 0.047 0.113 0.11 0.176 0.184zm-7.914-3.242-4.055-0.45c1.781-0.152 3.035-0.21 3.762-0.167 0.918 0.109 1.55 0.292 1.894 0.558l0.266 0.297c-0.082-0.02-0.395-0.086-0.942-0.199-0.351-0.074-0.664-0.086-0.925-0.039zm11.167 0.066-0.761-0.453c-0.305-0.109-0.496-0.172-0.578-0.191-0.192-0.039-0.555-0.071-1.094-0.106-0.457-0.012-0.824-0.074-1.102-0.183 0.926-0.137 1.696-0.231 2.305-0.282h0.883l0.086 0.035c0.258 0.219 0.57 0.43 0.937 0.641l0.844 0.445c0.141 0.071 0.293 0.137 0.457 0.203l2.77 0.883c0.461 0.094 0.968 0.207 1.515 0.348 0.02 0.004 0.039 0.012 0.063 0.016 0.035 0.011 0.078 0.023 0.121 0.027 0.035 0.016 0.07 0.027 0.105 0.031 0.094 0.031 0.188 0.059 0.285 0.078l0.493 0.117-2.481 0.094c-0.055 0.008-0.738-0.176-2.055-0.543l-2.793-1.16zm-1.628-11.301c1.429-0.445 2.55-1.093 3.363-1.941 0.609-0.641 1.172-1.906 1.672-3.801 0.371-1.262 0.597-2.058 0.676-2.387-0.387-1.035-0.879-1.957-1.485-2.761-0.398-0.551-0.73-0.7-1.004-0.434-0.172 0.149-0.379 0.57-0.613 1.258-0.066-0.152-0.207-0.719-0.43-1.688-0.14-0.711-0.406-1.168-0.801-1.375-0.136 0.278-0.218 0.727-0.242 1.344-0.031 0.567-0.14 1.004-0.328 1.317-0.379 0.593-0.742 1.015-1.094 1.257-0.101 0.063-0.386 0.196-0.851 0.399-0.336 0.133-0.559 0.301-0.676 0.5 0.75 0.039 1.375-0.016 1.871-0.164 0.285-0.106 0.574-0.332 0.863-0.68 0.321-0.348 0.571-0.555 0.75-0.625 0.129 0.551-0.242 1.051-1.113 1.5-1.129 0.582-1.738 0.941-1.832 1.086l2.133-0.871c-0.34 0.434-0.992 0.769-1.961 1.016-0.445 0.121-1.207 0.265-2.289 0.441-1.266 0.219-2.176 0.23-2.727 0.039l-0.378-0.168c-0.918-0.402-1.723-0.574-2.411-0.512l-1.715 0.149c-0.714 0.09-1.273 0.125-1.675 0.109 0.484-0.551 1.25-0.996 2.293-1.328l0.824-0.191c0.582-0.079 1.019-0.157 1.305-0.235 0.523-0.125 0.773-0.347 0.746-0.668-0.082-0.609-0.657-0.906-1.727-0.894-0.562-0.004-1.281 0.047-2.152 0.152 0.047-0.059 0.242-0.129 0.582-0.215 0.262-0.047 0.398-0.179 0.406-0.394 0.02-0.379-0.488-0.856-1.531-1.434-0.988-0.582-1.766-0.914-2.336-1-0.438-0.094-1.027-0.109-1.77-0.047-0.933 0.055-1.531 0.082-1.8 0.078 0.023-0.027 0.41-0.222 1.152-0.582 0.488-0.23 0.652-0.539 0.484-0.925-0.508 0.019-1.265-0.063-2.273-0.243l-2.43 0.211c-1.219 0.133-2.437 0.442-3.652 0.922-0.856 0.344-1.844 0.981-2.965 1.906-0.324 0.297-0.793 0.727-1.414 1.289-0.121 0.145-0.266 0.333-0.434 0.559-0.144 0.176-0.359 0.301-0.648 0.379-1.414 0.34-2.387 0.09-2.918-0.75v-0.039c0.297-0.266 0.734-0.598 1.316-0.996 0.633-0.406 1.125-0.742 1.477-1.016l0.148-0.133c0.028 0 0.055-0.019 0.078-0.046 4.446-3.629 8.989-4.801 13.625-3.52 2.055 0.566 4.145 1.805 6.266 3.707 1.766 1.824 2.762 2.809 2.988 2.949 0.399 0.262 0.895 0.43 1.493 0.512 0.703 0.074 1.269-0.016 1.703-0.27 1.062-0.707 1.683-1.378 1.871-2.011 0.222-0.821 0.789-1.539 1.699-2.157 0.379-0.246 0.676-0.363 0.891-0.355l0.211 0.102 1.101-0.258c0.551-0.129 0.984-0.047 1.305 0.246 0.355 0.371 0.91 1.367 1.668 2.988 0.437 1.004 0.676 2.203 0.715 3.59 0.019 0.535 0.027 1.082 0.023 1.644 0 0.293-0.016 0.579-0.047 0.848-0.023 0.348-0.058 0.688-0.109 1.012 0.183-0.043 0.355-0.07 0.511-0.086-0.042 0.086-0.07 0.25-0.074 0.488 1.188-1.094 2.43-1.871 3.731-2.332-0.028 0.028-0.051 0.059-0.074 0.086-0.239 0.344-0.59 0.922-1.051 1.738-0.391 0.758-0.785 1.301-1.184 1.629-0.5 0.395-0.777 0.617-0.824 0.676-0.09 0.195-0.125 0.574-0.102 1.133l0.11 1.234c0.039 0.157 0.09 0.289 0.152 0.391-0.82 0.098-1.558 0.094-2.207-0.008-0.547 0.18-1.211 0.238-1.996 0.172-0.188-0.008-0.816-0.18-1.891-0.516l-0.156 0.055-0.594 0.09c-0.172-0.117-0.379-0.18-0.617-0.184l-0.324-0.015c-0.746 0.039-1.906 0.394-3.481 1.07-1.308 0.328-3.312 0.691-6.007 1.086 0.707-0.168 1.507-0.52 2.398-1.051 1.399-0.848 2.137-1.285 2.215-1.32 0.535-0.285 1.269-0.473 2.199-0.555l2.879-0.129 1.316-0.074-0.796 0.027zm2.027 6.207 0.16-0.011 0.215-0.301 1.086 0.023c-0.031 0.27-0.067 0.45-0.113 0.532-0.024 0.058-0.207 0.246-0.555 0.57l0.805 0.453c-0.028 0.004-0.071-0.008-0.125-0.027h-0.039c-1.633-0.286-2.481-0.653-2.547-1.102l0.437-0.035c0.16-0.043 0.383-0.074 0.676-0.102z" inkscape:connector-curvature="0"/>
      <path id="path228" style="fill-rule:evenodd;fill:#ce786f" d="m76.391 75.269c-0.977-0.453-1.77-0.785-2.375-0.996 1.703 0.199 3.703 0.864 5.996 2.004l-1.606-0.461h-0.039c-1.109-0.437-1.769-0.644-1.984-0.629l0.172 0.106-0.164-0.024zm5.437 3.86c-0.535-0.008-1.043-0.149-1.523-0.43l-2.895-1.875c-0.992-0.633-2.055-1.144-3.183-1.527-0.497-0.145-1.332-0.379-2.512-0.703l0.93 0.078c0.261-0.047 0.57-0.035 0.925 0.039 0.547 0.113 0.86 0.179 0.942 0.199l-0.266-0.297 2.145 0.656 0.332 0.129c0.933 0.563 1.629 1.008 2.086 1.344 0.312 0.215 0.816 0.613 1.511 1.195 0.637 0.559 1.141 0.957 1.508 1.192zm-7.406-2.043c-0.031-0.078-0.082-0.168-0.145-0.266 0.032 0.024 0.059 0.035 0.086 0.031 0.032 0.079 0.051 0.157 0.059 0.235zm5.676 0.148c0.316-0.031 0.57-0.039 0.757-0.027-0.164-0.067-0.441-0.176-0.828-0.328-0.007-0.082 0.012-0.164 0.059-0.246l0.301-0.227-0.043-0.039c0.34-0.082 0.961-0.004 1.867 0.238 0.055 0.024 0.418 0.18 1.086 0.469 0.769 0.574 1.418 0.945 1.941 1.113 0.223 0.063 0.453 0.11 0.696 0.141 0.058 0.047 0.128 0.082 0.211 0.102 0.109 0.042 0.222 0.101 0.335 0.171-2.066 0.555-4.039 0.329-5.921-0.687-0.063-0.074-0.121-0.137-0.176-0.184l-0.141-0.187c-0.062-0.102-0.109-0.207-0.144-0.309zm2.953-2.949 0.761 0.453 1.211 0.539c-1.234-0.375-2.218-0.597-2.949-0.668l-4.172-0.437c1.024 0.07 1.801 0.082 2.332 0.039 0.852-0.051 1.789-0.024 2.817 0.074zm5.609 2.156 2.481-0.094-0.493-0.117c-0.097-0.019-0.191-0.047-0.285-0.078-0.035-0.004-0.07-0.015-0.105-0.031-0.043-0.004-0.086-0.016-0.121-0.027-0.024-0.004-0.043-0.012-0.063-0.016-0.547-0.141-1.054-0.254-1.515-0.348l-2.77-0.883c-0.164-0.066-0.316-0.132-0.457-0.203l-0.844-0.445c-0.254-0.164-0.484-0.32-0.683-0.465l-0.258-0.215 0.004 0.039-0.086-0.035h-0.883c-0.937 0-1.883 0.043-2.84 0.125-0.316 0.032-0.836 0.063-1.558 0.098-0.637 0.031-1.153 0.113-1.543 0.254l-1.582-0.18c1.375-0.523 3.621-0.707 6.738-0.551l1.711 0.25c-0.352-0.343-0.371-0.554-0.059-0.636 0.106-0.036 0.606 0.027 1.504 0.191 1.254 0.586 2.305 0.816 3.152 0.688 0.27 0.054 0.516 0.113 0.739 0.175 1.246 0.508 2.465 0.789 3.648 0.844-0.488 0.551-0.926 1.074-1.312 1.563l1.394 0.32c0.606 0.187 1.071 0.441 1.391 0.762l-5.102-0.961-0.203-0.024zm-0.18 2.989c-0.148 0.121-0.312 0.253-0.488 0.406-0.476 0.336-0.937 0.562-1.383 0.679-0.183 0.047-0.488 0.086-0.914 0.122l-0.359 0.031-0.297-0.172c0.758-0.82 1.309-1.43 1.649-1.832 0.667 0.316 1.265 0.57 1.792 0.766zm-2.671-8.52-0.805-0.453c0.348-0.324 0.531-0.512 0.555-0.57 0.046-0.082 0.082-0.262 0.113-0.532l0.164 0.028c2.527 0.449 4.664 0.836 6.402 1.164 1.524 0.269 2.84 0.461 3.95 0.578-0.372 0.355-0.879 0.828-1.524 1.418-0.18 0.097-0.348 0.168-0.504 0.207-0.133 0.012-0.281 0.012-0.441-0.004l-1.149 0.184c-0.527 0.097-1.308 0.035-2.347-0.196-0.106 0.008-0.532 0.031-1.278 0.071-0.48 0.042-0.894 0.023-1.25-0.051-1.273-0.184-2.476-0.481-3.613-0.891-3.426-1.25-6.246-1.808-8.457-1.668l6.059-0.531c1.007-0.086 1.851-0.094 2.527-0.02-0.293 0.028-0.516 0.059-0.676 0.102-0.859-0.063-2.176 0.043-3.945 0.305 0.195 0.117 0.512 0.179 0.937 0.199 0.539 0.031 0.864 0.07 0.977 0.113 0.246 0.059 0.758 0.242 1.531 0.551 0.727 0.336 1.863 0.465 3.406 0.383l0.043-0.004-0.675-0.383zm-21.934 4.934c-0.141-0.043-0.289-0.082-0.453-0.122l-3.402-1.23c-0.25-0.113-0.485-0.223-0.711-0.34 1.656 0.258 4.273 0.512 7.855 0.758 0.676 0.078 1.227 0.109 1.656 0.098-1.199 0.078-2.847 0.355-4.945 0.836zm6.699-5.567c0.242 0.031 0.887 0.028 1.926-0.008 0.824-0.047 1.434 0.036 1.828 0.243-0.73 0.195-1.496 0.316-2.297 0.359-1.117 0.098-1.769-0.031-1.961-0.391l-5.59-1.918c0.215 0.008 0.434 0.043 0.653 0.102 0.277 0.109 0.5 0.199 0.664 0.266 2.019 0.757 3.613 1.207 4.777 1.347zm-22.726-9.617c0.433 0.07 0.797 0.094 1.09 0.066 1.246-0.16 2.097-0.504 2.562-1.027 0.484-0.578 0.898-1.363 1.238-2.355 0.328-1.129 0.617-1.957 0.867-2.489 0.586-1.254 1.711-2.3 3.379-3.144 1.411-0.688 2.274-1.082 2.586-1.192 1.168-0.394 2.063-0.422 2.684-0.074-0.137 0.281-0.219 0.57-0.246 0.867 0.402 0.016 0.972-0.031 1.715-0.152 0.793-0.094 1.363-0.145 1.711-0.148 0.296 0 0.882-0.024 1.761-0.075 0.77-0.066 1.36-0.078 1.762-0.035 1.242 0.133 2.164 0.535 2.758 1.207 0.383 0.422 0.289 0.735-0.281 0.946-0.879 0.32-1.407 0.578-1.575 0.781 0.93-0.082 1.661-0.133 2.192-0.153 0.988-0.058 1.633 0.141 1.941 0.594-0.383 0.219-0.988 0.5-1.812 0.84-1.043 0.332-1.809 0.777-2.293 1.328 0.402 0.016 0.961-0.019 1.675-0.109l1.715-0.149c0.688-0.062 1.493 0.11 2.411 0.512l0.378 0.168-0.675 0.539c-1.106-0.09-2.352-0.113-3.743-0.074l-4.421 0.387-0.719 0.066c-0.211 0.016-0.391-0.047-0.539-0.195 0.269-0.614 0.859-1.067 1.769-1.36 0.34-0.082 1.106-0.218 2.293-0.402-0.289-0.242-0.742-0.402-1.367-0.481-0.352-0.05-0.852-0.085-1.496-0.113-0.891-0.105-2.191-0.113-3.895-0.019 0.231-0.422 0.793-0.711 1.692-0.871 1-0.168 1.637-0.372 1.914-0.61-0.184-0.25-0.609-0.387-1.281-0.41-0.375 0.008-0.856 0.035-1.438 0.086-0.621-0.023-1.539 0.027-2.758 0.164-1.808 0.156-2.976 0.406-3.507 0.746-0.786 0.5-1.293 0.836-1.52 1.016-0.598 0.48-0.984 0.945-1.16 1.386-0.067 0.196-0.09 0.532-0.074 1.012-0.012 0.457-0.079 0.797-0.192 1.02-0.426 0.949-1.207 1.644-2.347 2.093-1.426 0.5-2.973 0.594-4.633 0.286l-0.039 0.004-0.067-0.317-0.015-0.16zm35.148 3.832c0.41 0.07 0.996 0.219 1.766 0.445 0.773 0.282 1.351 0.446 1.73 0.493 2.84 0.312 4.891 0.066 6.16-0.739 0.075-0.062 0.137-0.105 0.188-0.136l0.445-0.403c0.149-0.148 0.27-0.289 0.363-0.433-0.492 0.179-0.96 0.324-1.406 0.445l-1.058 0.293c-0.442 0.121-0.864 0.211-1.262 0.269 0.41-1.746 1.457-2.964 3.137-3.644 1.211-0.508 3.023-0.789 5.425-0.836 3.606-0.129 7.024 1.484 10.262 4.844l3.418-0.864 0.207 0.504-0.043 0.004-2.879 1.496c-0.781-0.359-1.633-0.457-2.554-0.297 0.023-0.324 0.093-0.609 0.203-0.863-0.41 0.199-0.676 0.527-0.793 0.996-0.969 0.27-1.836 0.762-2.602 1.473-0.101 0.086-0.187 0.176-0.258 0.262-0.09-0.075-0.215-0.129-0.379-0.168-0.41-0.125-1.496-0.887-3.25-2.286-0.433-0.335-0.82-0.625-1.16-0.863l1.555 1.231c-0.426-0.258-0.945-0.371-1.559-0.344l-1.91 0.164c-0.89 0.562-1.527 0.937-1.91 1.133-0.746 0.359-1.449 0.566-2.113 0.625-1.086 0.121-1.75 0.195-1.989 0.215-0.722 0.039-1.355-0.028-1.906-0.196-0.328-0.105-0.929-0.371-1.797-0.804-0.832-0.356-1.429-0.45-1.793-0.286 0.133 0.258 0.461 0.508 0.993 0.758 0.472 0.223 0.886 0.364 1.238 0.41-1.77-0.058-2.848-0.121-3.227-0.195-0.601-0.137-1.383-0.496-2.343-1.082-0.754-0.336-1.633-0.297-2.641 0.109-0.543 0.235-1.367 0.618-2.469 1.141-1.648 0.465-3.597 0.504-5.855 0.113l-2.196 0.149 1.254-0.348c-1.417-0.305-2.467-0.695-3.151-1.172-0.969-0.664-1.637-1.101-2.004-1.308-0.754-0.391-1.539-0.617-2.348-0.68l0.215-0.297 1.078-0.098c1.883 0.719 3.817 1.125 5.809 1.219 2.066 0.086 3.957-0.211 5.664-0.894 0.832-1.789 1.539-3.028 2.121-3.723l-0.148-0.309c-0.86-0.031-2.266 0.106-4.219 0.411-1.16 0.183-2.664 0.742-4.512 1.679-0.332-0.425-0.297-0.937 0.11-1.535 0.332-0.484 0.75-0.867 1.261-1.152 0.821-0.422 2.391-0.852 4.707-1.297-0.429 0.305-0.812 0.512-1.152 0.625l5.805-1.152c0.789-0.149 1.328-0.262 1.613-0.344 0.652-0.215 1.078-0.547 1.281-0.992-0.23 0.742-0.461 1.336-0.687 1.785 0.297-0.266 0.675-0.688 1.132-1.262 0.481-0.633 0.833-1.051 1.055-1.258-0.144 0.789-0.265 1.403-0.359 1.84-0.149 0.789-0.379 1.371-0.692 1.746-0.07 0.141-0.23 0.301-0.48 0.485 0.324 0.023 0.832-0.141 1.523-0.497l1.446-0.929c0.078 0.289 0.09 0.582 0.035 0.879-0.133 0.629-0.528 1.332-1.18 2.113-0.558 0.664-1.117 1.152-1.68 1.469-0.378 0.25-0.91 0.441-1.593 0.582-0.949 0.191-1.485 0.304-1.617 0.344l-0.235 0.058c-0.93 0.082-1.664 0.27-2.199 0.555-0.078 0.035-0.816 0.472-2.215 1.32-0.891 0.531-1.691 0.883-2.398 1.051 2.695-0.395 4.699-0.758 6.007-1.086 1.575-0.676 2.735-1.031 3.481-1.07l0.324 0.015c0.238 0.004 0.445 0.067 0.617 0.184l0.594-0.09zm6.106 15.164 0.043 0.035-0.071 0.09c0.024-0.031 0.031-0.074 0.028-0.125z" inkscape:connector-curvature="0"/>
      <path id="path230" style="fill-rule:evenodd;fill:#b56a61" d="m78.406 75.816 1.606 0.461 0.043 0.035 0.289 0.055 0.043 0.039-0.301 0.227-0.047-0.039-1.633-0.778zm-4.16-1.203c-0.344-0.266-0.976-0.449-1.894-0.558l-0.618-0.145 0.121-0.012c0.969 0.074 1.688 0.199 2.161 0.375 0.605 0.211 1.398 0.543 2.375 0.996l-2.145-0.656zm2.395-0.613c0.39-0.141 0.906-0.223 1.543-0.254 0.722-0.035 1.242-0.066 1.558-0.098 0.957-0.082 1.903-0.125 2.84-0.125-0.609 0.051-1.379 0.145-2.305 0.282 0.278 0.109 0.645 0.171 1.102 0.183 0.539 0.035 0.902 0.067 1.094 0.106 0.082 0.019 0.273 0.082 0.578 0.191-1.028-0.098-1.965-0.125-2.817-0.074-0.531 0.043-1.308 0.031-2.332-0.039-0.699-0.043-1.25-0.035-1.644 0.023l0.383-0.195zm6.894-4.254-0.437 0.035c0.066 0.449 0.914 0.816 2.547 1.102h0.039c0.054 0.019 0.097 0.031 0.125 0.027l0.675 0.383-0.043 0.004c-1.543 0.082-2.679-0.047-3.406-0.383-0.773-0.309-1.285-0.492-1.531-0.551-0.113-0.043-0.438-0.082-0.977-0.113-0.425-0.02-0.742-0.082-0.937-0.199 1.769-0.262 3.086-0.368 3.945-0.305zm-34.59-15.805c0.211-0.367 0.438-0.668 0.684-0.906 0.531 0.84 1.504 1.09 2.918 0.75 0.289-0.078 0.504-0.203 0.648-0.379 0.168-0.226 0.313-0.414 0.434-0.559 0.621-0.562 1.09-0.992 1.414-1.289 1.121-0.925 2.109-1.562 2.965-1.906 1.215-0.48 2.433-0.789 3.652-0.922l2.43-0.211c1.008 0.18 1.765 0.262 2.273 0.243 0.168 0.386 0.004 0.695-0.484 0.925-0.742 0.36-1.129 0.555-1.152 0.582 0.269 0.004 0.867-0.023 1.8-0.078 0.743-0.062 1.332-0.047 1.77 0.047 0.57 0.086 1.348 0.418 2.336 1 1.043 0.578 1.551 1.055 1.531 1.434-0.008 0.215-0.144 0.347-0.406 0.394-0.34 0.086-0.535 0.156-0.582 0.215 0.871-0.105 1.59-0.156 2.152-0.152 1.07-0.012 1.645 0.285 1.727 0.894 0.027 0.321-0.223 0.543-0.746 0.668-0.289 0.078-0.723 0.156-1.305 0.235l-0.824 0.191c0.824-0.34 1.429-0.621 1.812-0.84-0.308-0.453-0.953-0.652-1.941-0.594-0.531 0.02-1.262 0.071-2.192 0.153 0.168-0.203 0.696-0.461 1.575-0.781 0.57-0.211 0.664-0.524 0.281-0.946-0.594-0.672-1.516-1.074-2.758-1.207-0.402-0.043-0.992-0.031-1.762 0.035-0.879 0.051-1.465 0.075-1.761 0.075-0.348 0.003-0.918 0.054-1.711 0.148-0.743 0.121-1.313 0.168-1.715 0.152 0.027-0.297 0.109-0.586 0.246-0.867-0.621-0.348-1.516-0.32-2.684 0.074-0.312 0.11-1.175 0.504-2.586 1.192-1.668 0.844-2.793 1.89-3.379 3.144-0.25 0.532-0.539 1.36-0.867 2.489-0.34 0.992-0.754 1.777-1.238 2.355-0.465 0.523-1.316 0.867-2.562 1.027-0.293 0.028-0.657 0.004-1.09-0.066-0.18-0.84-0.211-1.652-0.094-2.441 0.246-1.493 0.543-2.696 0.891-3.61l0.3-0.668zm60.766 6.567c0.23 0.164 0.461 0.375 0.695 0.621l0.274 0.336 0.793 1.257c0.222 0.434 0.457 0.938 0.691 1.504l-3.418 0.864c-3.238-3.36-6.656-4.973-10.262-4.844-2.402 0.047-4.214 0.328-5.425 0.836-1.68 0.68-2.727 1.898-3.137 3.644l-0.676 0.063c-0.062-0.102-0.113-0.234-0.152-0.391l-0.11-1.234c-0.023-0.559 0.012-0.938 0.102-1.133 0.047-0.059 0.324-0.281 0.824-0.676 0.399-0.328 0.793-0.871 1.184-1.629 0.461-0.816 0.812-1.394 1.051-1.738 0.101-0.062 0.203-0.113 0.308-0.148 4.344-2.067 9.02-1.7 14.031 1.101 1.496 0.617 2.575 1.141 3.227 1.567zm-27.527 2.929-0.52 0.047-2.879 0.129 0.235-0.058c0.132-0.04 0.668-0.153 1.617-0.344 0.683-0.141 1.215-0.332 1.593-0.582 0.563-0.317 1.122-0.805 1.68-1.469 0.652-0.781 1.047-1.484 1.18-2.113 0.055-0.297 0.043-0.59-0.035-0.879l-1.446 0.929c-0.691 0.356-1.199 0.52-1.523 0.497 0.25-0.184 0.41-0.344 0.48-0.485 0.313-0.379 0.543-0.957 0.692-1.746 0.094-0.437 0.215-1.051 0.359-1.84-0.222 0.207-0.574 0.625-1.055 1.258-0.457 0.574-0.835 0.996-1.132 1.262 0.226-0.449 0.457-1.043 0.687-1.785-0.203 0.445-0.629 0.777-1.281 0.992-0.285 0.082-0.824 0.195-1.613 0.344l-5.805 1.152c0.34-0.113 0.723-0.32 1.152-0.625l1.496-1.254c0.551 0.191 1.461 0.18 2.727-0.039 1.082-0.176 1.844-0.32 2.289-0.441 0.969-0.247 1.621-0.582 1.961-1.016l-2.133 0.871c0.094-0.145 0.703-0.504 1.832-1.086 0.871-0.449 1.242-0.949 1.113-1.5-0.179 0.07-0.429 0.277-0.75 0.625-0.289 0.348-0.578 0.574-0.863 0.68-0.496 0.148-1.121 0.203-1.871 0.164 0.117-0.199 0.34-0.367 0.676-0.5 0.465-0.203 0.75-0.336 0.851-0.399 0.352-0.242 0.715-0.664 1.094-1.257 0.188-0.313 0.297-0.75 0.328-1.317 0.024-0.617 0.106-1.066 0.242-1.344 0.391 0.207 0.661 0.664 0.801 1.375 0.223 0.969 0.364 1.536 0.43 1.688 0.234-0.688 0.441-1.109 0.613-1.258 0.274-0.266 0.606-0.117 1.004 0.434 0.606 0.804 1.098 1.726 1.485 2.761-0.079 0.329-0.305 1.125-0.676 2.387-0.5 1.895-1.063 3.16-1.672 3.801-0.813 0.848-1.934 1.496-3.363 1.941zm4.855 1.344c1.004 0.18 2.152 0.133 3.438-0.141 0.211-0.046 0.449-0.105 0.707-0.183l1.058-0.293c0.446-0.121 0.914-0.266 1.406-0.445-0.093 0.144-0.214 0.285-0.363 0.433l-0.445 0.403c-0.051 0.031-0.113 0.074-0.188 0.136-1.269 0.805-3.32 1.051-6.16 0.739-0.379-0.047-0.957-0.211-1.73-0.493-0.77-0.226-1.356-0.375-1.766-0.445l0.156-0.055c1.075 0.336 1.703 0.508 1.891 0.516 0.785 0.066 1.449 0.008 1.996-0.172zm-2.086 8.293c0.735 0.148 1.731 0.371 2.988 0.66 0.055 0.024 0.11 0.031 0.164 0.028-0.847 0.128-1.898-0.102-3.152-0.688zm9.988 4.023 0.567 0.032c0.512 0.062 0.844 0.179 0.992 0.355l-1.559-0.387z" inkscape:connector-curvature="0"/>
      <path id="path232" style="fill-rule:evenodd;fill:#e08378" d="m24.711 84.406-0.457-0.379c1.25 0.903 1.941 2.012 2.074 3.328-0.008 0.032-0.012 0.063-0.012 0.098 0.067 0.824-0.066 1.738-0.39 2.746-0.992 1.148-2.102 2.074-3.332 2.773-0.051 0.032-0.254 0.129-0.598 0.286-1.176 0.797-2.441 1.214-3.789 1.257-1.242 0.055-2.809-0.316-4.711-1.109-0.594-0.254-1.176-0.668-1.738-1.246 0.047 0.039 0.094 0.078 0.133 0.109 0.269-0.07 0.82-0.132 1.652-0.195-0.039-0.379-0.375-0.816-1.008-1.305l0.059-0.015c0.222 0.211 0.504 0.363 0.851 0.449 0.414 0.125 0.746 0.113 1-0.039-0.156-0.113-0.3-0.223-0.425-0.324 0.207 0.066 0.441 0.121 0.699 0.164 1.386 0.207 2.129-0.141 2.222-1.043-0.097 0.09-0.207 0.168-0.324 0.238-0.375 0.254-0.801 0.324-1.277 0.203-0.438-0.113-0.774-0.363-1.004-0.754-0.156-0.258-0.231-0.531-0.231-0.816-0.011-0.125-0.007-0.258 0.016-0.406 0.125-0.571 0.219-0.985 0.285-1.239-0.625-0.062-1.051 0.082-1.277 0.434-0.141 0.238-0.227 0.742-0.266 1.508-0.027 0.09-0.047 0.179-0.054 0.265-0.063-0.214-0.106-0.457-0.125-0.718l-0.239-0.09c-0.164 0.719-0.238 1.086-0.222 1.109-0.004 0.02-0.008 0.039-0.016 0.055-0.316-0.352-0.664-0.625-1.047-0.82-0.078-0.036-0.152-0.071-0.222-0.098 0.246-0.094 0.496-0.211 0.746-0.352 0.812-0.515 1.304-1.117 1.48-1.812 0.195-0.77 0.012-1.574-0.551-2.418-0.027-0.035-0.058-0.074-0.09-0.11 0.34-0.054 0.618-0.07 0.832-0.05 0.735 0.09 1.172 0.25 1.309 0.476 0.039 0.071 0.109 0.555 0.211 1.457 0.301 0.028 0.648 0.102 1.039 0.219-0.488 0.078-0.844 0.414-1.055 1 0.235-0.066 0.461-0.102 0.684-0.102 0.457-0.011 0.887 0.114 1.289 0.372 0.152 0.097 0.297 0.21 0.438 0.343 0.359 0.344 0.546 0.684 0.558 1.02-0.004 0.094-0.098 0.508-0.285 1.238l0.547 0.141c0.722-0.305 1.047-0.778 0.972-1.418v-0.043c0.352 0.125 0.563 0 0.633-0.379 0.18-1.16 0.285-1.766 0.317-1.817-0.012-0.023 0.453-0.207 1.394-0.55 0.129-0.047 0.27-0.145 0.426-0.301s0.277-0.242 0.359-0.258c0.129-0.047 0.27 0.008 0.426 0.164l0.246 0.18c0.942-0.188 1.516-0.266 1.723-0.235 0.48 0.028 0.973 0.258 1.484 0.7-0.293-0.754-0.746-1.387-1.359-1.891zm-2.348-1.324c0.028-0.027 0.055-0.047 0.078-0.07 0.688 0.308 1.286 0.64 1.786 1.007l-0.645-0.105-0.801-0.641c-0.129-0.066-0.265-0.129-0.418-0.191zm-1.226 8.851c-1.223 0.602-3.196 1.063-5.926 1.383 1.066 0.485 2.727 0.692 4.98 0.621l-0.402-0.363c0.563-0.148 1.324-0.512 2.285-1.082 1.055-0.629 1.93-1.273 2.621-1.934l0.051-0.074c0.574-0.808 0.988-1.519 1.242-2.137l-0.453 0.411c-0.254-0.317-0.949 0.05-2.09 1.105-1.445 1.324-2.215 2.016-2.308 2.07zm-11.75-2.855 0.386 0.492-0.414-0.5 0.028 0.008zm2.093-6.457c0.043 0.07 0.094 0.148 0.141 0.242-0.219-0.328-0.355-0.547-0.414-0.66 0.043 0.082 0.133 0.215 0.262 0.402l0.011 0.016z" inkscape:connector-curvature="0"/>
      <path id="path234" style="fill-rule:evenodd;fill:#ce786f" d="m9.387 89.078-0.008-0.016c0.25 0.024 0.508 0.016 0.777-0.023l0.782-0.207c0.07 0.027 0.144 0.062 0.222 0.098 0.383 0.199 0.731 0.468 1.047 0.82-0.023 0.32 0.074 0.617 0.301 0.894 0.027 0.039 0.058 0.075 0.086 0.11l-0.059 0.015c0.633 0.489 0.969 0.926 1.008 1.305-0.832 0.063-1.383 0.125-1.652 0.195-0.039-0.035-0.086-0.07-0.133-0.109-0.176-0.188-0.352-0.395-0.531-0.617 0.609-0.328 0.683-0.809 0.218-1.43-0.465-0.625-0.968-0.742-1.515-0.355l-0.157-0.188-0.386-0.492zm2.234-6.215c-0.047-0.094-0.098-0.172-0.141-0.242 0.055 0.031 0.11 0.059 0.168 0.086l0.063 0.031c0.137 0.074 1.25 0.141 3.336 0.203 1.484 0.047 2.137 0.594 1.949 1.633 1.184 0.168 2.113 0.449 2.789 0.856-0.168-0.645-0.512-1.168-1.031-1.575 0.437 0.114 0.75 0.219 0.937 0.325-0.195-0.223-0.304-0.485-0.324-0.782 0.61 0.039 1.504 0.207 2.672 0.504 1.172 0.297 2.063 0.465 2.672 0.504 0.613 0.504 1.066 1.137 1.359 1.891-0.511-0.442-1.004-0.672-1.484-0.7-0.207-0.031-0.781 0.047-1.723 0.235l-0.246-0.18c-0.156-0.156-0.297-0.211-0.426-0.164-0.082 0.016-0.203 0.102-0.359 0.258s-0.297 0.254-0.426 0.301c-0.941 0.343-1.406 0.527-1.394 0.55-0.032 0.051-0.137 0.657-0.317 1.817-0.07 0.379-0.281 0.504-0.633 0.379-0.089-0.586-0.429-1.145-1.019-1.676-0.582-0.555-1.176-0.852-1.789-0.891-0.117-0.007-0.231 0-0.34 0.016-0.391-0.117-0.738-0.191-1.039-0.219-0.102-0.902-0.172-1.386-0.211-1.457-0.137-0.226-0.574-0.386-1.309-0.476-0.214-0.02-0.492-0.004-0.832 0.05l-0.902-1.277z" inkscape:connector-curvature="0"/>
      <path id="path236" style="fill-rule:evenodd;fill:#b56a61" d="m10.895 81.875-0.016 0.012c-0.035-0.028-0.074-0.051-0.113-0.075l0.015-0.011 0.114 0.074zm0.312 0.328-0.043-0.07-0.105-0.262c2.879-0.512 5.226-0.559 7.039-0.137 1.863 0.457 3.285 0.906 4.265 1.348 0.153 0.062 0.289 0.125 0.418 0.191l0.801 0.641 0.645 0.105 0.027 0.008 0.457 0.379c-0.609-0.039-1.504-0.207-2.672-0.504s-2.062-0.465-2.672-0.504c0.02 0.297 0.129 0.559 0.324 0.782-0.187-0.106-0.5-0.211-0.937-0.325 0.519 0.407 0.863 0.93 1.031 1.575-0.676-0.407-1.605-0.688-2.789-0.856 0.188-1.039-0.465-1.586-1.949-1.633-2.086-0.062-3.199-0.129-3.336-0.203l-0.063-0.031c-0.058-0.027-0.113-0.055-0.168-0.086l-0.011-0.016c-0.129-0.187-0.219-0.32-0.262-0.402zm0.02 9.34c-0.368-0.461-0.649-0.883-0.844-1.262l-0.453-0.523c0.547-0.387 1.05-0.27 1.515 0.355 0.465 0.621 0.391 1.102-0.218 1.43z" inkscape:connector-curvature="0"/>
      <path id="path238" style="fill-rule:evenodd;fill:#e5a39d" d="m21.137 91.933c0.093-0.054 0.863-0.746 2.308-2.07 1.141-1.055 1.836-1.422 2.09-1.105l0.453-0.411c-0.254 0.618-0.668 1.329-1.242 2.137l-0.051 0.074c-0.691 0.661-1.566 1.305-2.621 1.934-0.961 0.57-1.722 0.934-2.285 1.082l0.402 0.363c-2.253 0.071-3.914-0.136-4.98-0.621 2.73-0.32 4.703-0.781 5.926-1.383z" inkscape:connector-curvature="0"/>
      <path id="path240" style="fill-rule:evenodd;fill:#b76b62" d="m14.02 90.84c-0.415-0.305-0.684-0.524-0.813-0.66-0.18-0.208-0.312-0.469-0.398-0.786 0.007-0.086 0.027-0.175 0.054-0.265 0.039-0.766 0.125-1.27 0.266-1.508 0.226-0.352 0.652-0.496 1.277-0.434-0.066 0.254-0.16 0.668-0.285 1.239-0.023 0.148-0.027 0.281-0.016 0.406 0 0.285 0.075 0.558 0.231 0.816 0.23 0.391 0.566 0.641 1.004 0.754 0.476 0.121 0.902 0.051 1.277-0.203 0.117-0.07 0.227-0.148 0.324-0.238-0.093 0.902-0.836 1.25-2.222 1.043-0.258-0.043-0.492-0.098-0.699-0.164z" inkscape:connector-curvature="0"/>
      <path id="path242" style="fill-rule:evenodd;fill:#e3978e" d="m12.594 90.754c-0.028-0.035-0.059-0.071-0.086-0.11-0.227-0.277-0.324-0.574-0.301-0.894 0.008-0.02 0.012-0.035 0.016-0.055-0.016-0.023 0.058-0.39 0.222-1.109l0.239 0.09c0.019 0.261 0.062 0.504 0.125 0.718 0.086 0.317 0.218 0.578 0.398 0.786 0.129 0.136 0.398 0.355 0.813 0.66 0.125 0.101 0.269 0.211 0.425 0.324-0.254 0.152-0.586 0.164-1 0.039-0.347-0.086-0.629-0.238-0.851-0.449zm3.32-4.512c0.109-0.016 0.223-0.023 0.34-0.016 0.613 0.039 1.207 0.336 1.789 0.891 0.59 0.531 0.93 1.09 1.019 1.676v0.043c0.075 0.64-0.25 1.113-0.972 1.418l-0.547-0.141c0.187-0.73 0.281-1.144 0.285-1.238-0.012-0.336-0.199-0.676-0.558-1.02-0.141-0.133-0.286-0.246-0.438-0.343-0.402-0.258-0.832-0.383-1.289-0.372-0.223 0-0.449 0.036-0.684 0.102 0.211-0.586 0.567-0.922 1.055-1z" inkscape:connector-curvature="0"/>
      <g id="g244">
        <g id="g246">
          <g id="g252">
            <path id="path270" style="fill-rule:evenodd;fill:url(#linearGradient254)" d="m6.516 79.246c-1.86-1.035-3.121-2.711-3.786-5.016-0.343-1.16-0.601-1.894-0.769-2.211-2.059 7.868 1.488 11.95 10.648 12.243-0.914-1.301-1.398-2.012-1.449-2.133l-0.098-0.27-0.175 0.039c-0.637-0.433-1.383-0.906-2.242-1.422-0.649-0.382-1.36-0.789-2.129-1.23z" inkscape:connector-curvature="0"/>
          </g>
        </g>
      </g>
      <path id="path272" style="fill-rule:evenodd;fill:#584e3f" d="m8.418 80.379-1.902-1.133c-1.86-1.035-3.121-2.711-3.786-5.016-0.343-1.16-0.601-1.894-0.769-2.211-1.051 4.024-0.649 7.051 1.211 9.078l0.234 0.059c0.153-0.402 0.242-0.984 0.266-1.75 0.32 0.055 0.766 0.191 1.34 0.418 0.547 0.242 0.988 0.395 1.332 0.453 0.453 0.055 1.144 0.09 2.074 0.102z" inkscape:connector-curvature="0"/>
      <g id="g274">
        <g id="g276" clip-path="url(#clipPath278)">
          <g id="g282" transform="matrix(.77648 .19253 .19253 -.77648 11.761 87.677)">
            <g id="g304" mask="url(#mask296)">
              <path id="path312" style="fill:url(#radialGradient100);fill-rule:evenodd" d="m1.66 75.898c0.012 0.059 0.055 0.168 0.125 0.321l-0.144-0.243c-0.09 0.254-0.164 0.539-0.215 0.856 0.328 4.117 3.203 6.535 8.629 7.25-0.18-0.485-0.461-0.965-0.836-1.445-0.246-0.336-0.531-0.68-0.856-1.036-0.597-0.586-1.316-1.179-2.156-1.773-1.801-1.27-3.277-2.734-4.434-4.395-0.097 0.168-0.132 0.325-0.113 0.465z" inkscape:connector-curvature="0"/>
            </g>
          </g>
        </g>
      </g>
      <g id="g314">
        <g id="g316">
          <g id="g322">
            <path id="path340" style="fill-rule:evenodd;fill:url(#linearGradient324)" d="m11.672 88.469c0.844-0.508 1.348-1.11 1.519-1.809 0.168-0.781-0.031-1.586-0.593-2.414-9.16-0.293-12.707-4.371-10.649-12.242-0.019-0.032-0.039-0.063-0.058-0.098-0.11-0.109-0.192-0.059-0.243 0.149-1.086 3.054-1.632 5.488-1.644 7.296-0.024 1.313 0.129 2.313 0.453 2.996 0.305 0.653 0.887 1.25 1.738 1.793 0.571 0.36 1.766 1.082 3.586 2.165 0.453 0.277 0.86 0.531 1.215 0.757 0.957 0.676 1.629 1.243 2.012 1.692l0.222 0.261c0.762 0.137 1.579-0.046 2.442-0.546z" inkscape:connector-curvature="0"/>
          </g>
        </g>
      </g>
      <path id="path342" style="fill-rule:evenodd;fill:#584e3f" d="m2.543 83.074c-0.434-0.469-0.688-0.816-0.766-1.059l0.551 0.098c0.02-0.738 0.297-1.082 0.832-1.031-1.859-2.027-2.262-5.055-1.211-9.078-0.019-0.032-0.039-0.063-0.058-0.098-0.11-0.109-0.192-0.059-0.243 0.149-1.086 3.054-1.632 5.488-1.644 7.296-0.031 1.231 0.098 2.168 0.375 2.813 0.254 0.641 0.742 1.215 1.469 1.726l1.211 0.258c0.027-0.324-0.145-0.683-0.516-1.074z" inkscape:connector-curvature="0"/>
      <g id="g344">
        <g id="g346" clip-path="url(#clipPath348)">
          <g id="g352" transform="matrix(.77648 .19253 .19253 -.77648 11.672 87.808)">
            <g id="g374" mask="url(#mask366)">
              <path id="path382" style="fill:url(#radialGradient170);fill-rule:evenodd" d="m10.047 84.066c-5.43-0.715-8.305-3.129-8.629-7.25-0.16 0.867-0.148 1.914 0.043 3.145 0.234 1.707 0.734 2.914 1.492 3.625 0.336 0.304 0.879 0.601 1.629 0.898 0.398 0.18 0.969 0.418 1.719 0.715 0.371 0.176 0.719 0.316 1.051 0.426 1.32 0.547 2.234 0.844 2.746 0.887 0.277-0.782 0.257-1.598-0.051-2.446z" inkscape:connector-curvature="0"/>
            </g>
          </g>
        </g>
      </g>
      <path id="path384" style="fill-rule:evenodd;fill:#504739" d="m15.801 89.847c0.308-0.214 0.285-0.542-0.071-0.98-0.343-0.418-0.664-0.492-0.964-0.219-0.274 0.223-0.243 0.563 0.089 1.016 0.145 0.195 0.309 0.285 0.489 0.269 0.179 0.047 0.336 0.02 0.457-0.086zm-1.715-1.398 0.035-0.023c0.109-0.438 0.359-0.801 0.742-1.094 0.176-0.07 0.356-0.133 0.543-0.184 0.535-0.039 1.035 0.098 1.5 0.41 0.117 0.09 0.223 0.211 0.317 0.372 0.222 0.429 0.277 0.859 0.168 1.3-0.086 0.328-0.231 0.602-0.446 0.821-0.101 0.089-0.195 0.164-0.289 0.218-0.426 0.223-0.855 0.278-1.297 0.164-0.437-0.109-0.789-0.363-1.058-0.765-0.231-0.387-0.305-0.793-0.215-1.219z" inkscape:connector-curvature="0"/>
      <path id="path386" style="fill-rule:evenodd;fill:#84765e" d="m15.801 89.847c-0.121 0.106-0.278 0.133-0.457 0.086-0.18 0.016-0.34-0.074-0.489-0.269-0.332-0.453-0.363-0.793-0.089-1.016 0.3-0.273 0.625-0.199 0.964 0.219 0.356 0.438 0.379 0.766 0.071 0.98z" inkscape:connector-curvature="0"/>
    </g>
  </g>
<metadata><rdf:RDF><cc:Work><dc:format>image/svg+xml</dc:format><dc:type rdf:resource="http://purl.org/dc/dcmitype/StillImage"/><cc:license rdf:resource="http://creativecommons.org/licenses/publicdomain/"/><dc:publisher><cc:Agent rdf:about="http://openclipart.org/"><dc:title>Openclipart</dc:title></cc:Agent></dc:publisher></cc:Work><cc:License rdf:about="http://creativecommons.org/licenses/publicdomain/"><cc:permits rdf:resource="http://creativecommons.org/ns#Reproduction"/><cc:permits rdf:resource="http://creativecommons.org/ns#Distribution"/><cc:permits rdf:resource="http://creativecommons.org/ns#DerivativeWorks"/></cc:License></rdf:RDF></metadata></svg>
